<svg xmlns="http://www.w3.org/2000/svg" xmlns:xlink="http://www.w3.org/1999/xlink" version="1.1" x="0px" y="0px"
	viewBox="0 0 100 125" style="enable-background:new 0 0 100 100;" xml:space="preserve">
	<style type="text/css">
		.st0 {
			fill: #010202;
		}
	</style>
	<rect x="90" y="37.5" class="st0" width="5" height="10" />
	<rect x="22.5" y="5" class="st0" width="10" height="5" />
	<rect x="90" y="52.5" class="st0" width="5" height="10" />
	<rect x="90" y="67.5" class="st0" width="5" height="10" />
	<rect x="67.5" y="90" class="st0" width="10" height="5" />
	<polygon class="st0" points="90,90 82.5,90 82.5,95 95,95 95,82.5 90,82.5 " />
	<rect x="37.5" y="5" class="st0" width="10" height="5" />
	<rect x="67.5" y="5" class="st0" width="10" height="5" />
	<polygon class="st0" points="82.5,10 90,10 90,17.5 95,17.5 95,5 82.5,5 " />
	<polygon class="st0" points="10,10 17.5,10 17.5,5 5,5 5,17.5 10,17.5 " />
	<rect x="52.5" y="5" class="st0" width="10" height="5" />
	<rect x="90" y="22.5" class="st0" width="5" height="10" />
	<polygon class="st0" points="17.5,90 10,90 10,82.5 5,82.5 5,95 17.5,95 " />
	<rect x="5" y="22.5" class="st0" width="5" height="10" />
	<rect x="5" y="67.5" class="st0" width="5" height="10" />
	<rect x="5" y="52.5" class="st0" width="5" height="10" />
	<rect x="5" y="37.5" class="st0" width="5" height="10" />
	<rect x="52.5" y="90" class="st0" width="10" height="5" />
	<rect x="22.5" y="90" class="st0" width="10" height="5" />
	<rect x="37.5" y="90" class="st0" width="10" height="5" />
	<path class="st0"
		d="M85,20H15v60h70V20z M29,75h-9v-9l15-15l9,9L29,75z M36,75l19-19l21,19H36z M80,71.8L54.9,49l-7.4,7.4v0L35,44  L20,59V25h60V71.8z" />
	<path class="st0"
		d="M65,30c-4.1,0-7.5,3.4-7.5,7.5S60.9,45,65,45s7.5-3.4,7.5-7.5S69.1,30,65,30z M65,40c-1.4,0-2.5-1.1-2.5-2.5  c0-1.4,1.1-2.5,2.5-2.5c1.4,0,2.5,1.1,2.5,2.5C67.5,38.9,66.4,40,65,40z" />
	<text x="0" y="115" fill="#000000" font-size="5px" font-weight="regular"
		font-family="'Arial', Sans-serif">Перетащите
		сюда ваш файл</text><text x="0" y="120" fill="#000000" font-size="4px" font-weight="bold"
		font-family="'Arial', Sans-serif">Допускаются
		форматы:
		.{png,jpg,gif,webp}</text>
</svg>