<svg width="20" height="20" viewBox="0 0 20 20" fill="none" xmlns="http://www.w3.org/2000/svg">
<g id="Icon">
<path id="vector" d="M9.16666 12.5001H10.8333V14.1667H9.16666V12.5001ZM9.16666 5.83342H10.8333V10.8334H9.16666V5.83342ZM9.99166 1.66675C5.39166 1.66675 1.66666 5.40008 1.66666 10.0001C1.66666 14.6001 5.39166 18.3334 9.99166 18.3334C14.6 18.3334 18.3333 14.6001 18.3333 10.0001C18.3333 5.40008 14.6 1.66675 9.99166 1.66675ZM9.99999 16.6667C6.31666 16.6667 3.33332 13.6834 3.33332 10.0001C3.33332 6.31675 6.31666 3.33341 9.99999 3.33341C13.6833 3.33341 16.6667 6.31675 16.6667 10.0001C16.6667 13.6834 13.6833 16.6667 9.99999 16.6667Z" fill="white"/>
</g>
</svg>
