<svg width="20" height="20" viewBox="0 0 20 20" fill="none" xmlns="http://www.w3.org/2000/svg">
<path fill-rule="evenodd" clip-rule="evenodd" d="M9.99999 1.66675C5.39999 1.66675 1.66666 5.40008 1.66666 10.0001C1.66666 14.6001 5.39999 18.3334 9.99999 18.3334C14.6 18.3334 18.3333 14.6001 18.3333 10.0001C18.3333 5.40008 14.6 1.66675 9.99999 1.66675ZM9.16666 5.83341V7.50008H10.8333V5.83341H9.16666ZM9.16666 9.16675V14.1667H10.8333V9.16675H9.16666ZM3.33332 10.0001C3.33332 13.6751 6.32499 16.6667 9.99999 16.6667C13.675 16.6667 16.6667 13.6751 16.6667 10.0001C16.6667 6.32508 13.675 3.33341 9.99999 3.33341C6.32499 3.33341 3.33332 6.32508 3.33332 10.0001Z" fill="white"/>
</svg>
