<svg width="20" height="20" viewBox="0 0 20 20" fill="none" xmlns="http://www.w3.org/2000/svg">
<g id="Icon">
<path id="vector" fill-rule="evenodd" clip-rule="evenodd" d="M9.99999 1.6665C5.39999 1.6665 1.66666 5.39984 1.66666 9.99984C1.66666 14.5998 5.39999 18.3332 9.99999 18.3332C14.6 18.3332 18.3333 14.5998 18.3333 9.99984C18.3333 5.39984 14.6 1.6665 9.99999 1.6665ZM9.99999 16.6665C6.32499 16.6665 3.33332 13.6748 3.33332 9.99984C3.33332 6.32484 6.32499 3.33317 9.99999 3.33317C13.675 3.33317 16.6667 6.32484 16.6667 9.99984C16.6667 13.6748 13.675 16.6665 9.99999 16.6665ZM8.33332 12.1582L13.825 6.6665L15 7.84984L8.33332 14.5165L4.99999 11.1832L6.17499 10.0082L8.33332 12.1582Z" fill="white"/>
</g>
</svg>
